{"title":"Ustad Nusrat Fateh Ali Khan Sahib  [INTERVIEW] [SIPPY GREWAL]","uid":5653973,"size":1780426808,"categoryP":"video","categoryS":"other","magnet":"?xt=urn:btih:0daf6c8f9e51e5ec5317b0912ee6c01f796eb427&amp;dn=Ustad+Nusrat+Fateh+Ali+Khan+Sahib++%5BINTERVIEW%5D+%5BSIPPY+GREWAL%5D&amp;tr=udp%3A%2F%2Ftracker.openbittorrent.com%3A80&amp;tr=udp%3A%2F%2Fopen.demonii.com%3A1337&amp;tr=udp%3A%2F%2Ftracker.coppersurfer.tk%3A6969&amp;tr=udp%3A%2F%2Fexodus.desync.com%3A6969","seeders":0,"leechers":1,"uploader":"sippygrewal","files":5,"time":1277684747,"description":"Title: Ustad Nusrat Fateh Ali Khan Sahib  [INTERVIEW] [SIPPY GREWAL]\nArtist: Ustad Nusrat Fateh Ali Khan Sahib\nFormat : MPEG-PS \nFile size : 1.66 GiB \nDuration : 40mn 59s \nOverall bit rate : 5 791 Kbps \n\nVideo \nID : 224 (0xE0) \nFormat : MPEG Video \nFormat version : Version 2 \nFormat profile : Main@Main \nFormat settings, BVOP : Yes \nFormat settings, Matrix : Default \nFormat settings, GOP : M=3, N=12 \nDuration : 40mn 59s \nBit rate mode : Variable \nBit rate : 5 420 Kbps \nNominal bit rate : 8 000 Kbps \nWidth : 720 pixels \nHeight : 576 pixels \nDisplay aspect ratio : 4:3 \nFrame rate : 25.000 fps \nStandard : PAL \nColor space : YUV \nChroma subsampling : 4:2:0 \nBit depth : 8 bits \nScan type : Interlaced \nScan order : Bottom Field First \nBits/(Pixel*Frame) : 0.523 \nStream size : 1.55 GiB (94%) \n\nAudio \nID : 128 (0x80) \nFormat : AC-3 \nFormat/Info : Audio Coding 3 \nMode extension : CM (complete main) \nDuration : 40mn 59s \nBit rate mode : Constant \nBit rate : 256 Kbps \nChannel(s) : 2 channels \nChannel positions : Front: L R \nSampling rate : 48.0 KHz \nStream size : 75.1 MiB (4%) ","torrent":{"xt":"urn:btih:0daf6c8f9e51e5ec5317b0912ee6c01f796eb427","amp;dn":"Ustad+Nusrat+Fateh+Ali+Khan+Sahib++%5BINTERVIEW%5D+%5BSIPPY+GREWAL%5D","amp;tr":["udp%3A%2F%2Ftracker.openbittorrent.com%3A80","udp%3A%2F%2Fopen.demonii.com%3A1337","udp%3A%2F%2Ftracker.coppersurfer.tk%3A6969","udp%3A%2F%2Fexodus.desync.com%3A6969"],"infoHash":"0daf6c8f9e51e5ec5317b0912ee6c01f796eb427","infoHashBuffer":{"type":"Buffer","data":[13,175,108,143,158,81,229,236,83,23,176,145,46,230,192,31,121,110,180,39]},"announce":[],"urlList":[]}}